<?xml version="1.0" encoding="utf-8" ?>
<svg baseProfile="tiny" height="500px" version="1.2" width="1500px" xmlns="http://www.w3.org/2000/svg" xmlns:ev="http://www.w3.org/2001/xml-events" xmlns:xlink="http://www.w3.org/1999/xlink"><defs /><g transform="translate(250, 250) scale(208.33333333333334, -208.33333333333334)"><circle cx="0" cy="0" fill="none" r="1" stroke="black" stroke-width="0.015" /><path d="M 0.34202014332566866 0.9396926207859084 A 2.74747741945462 2.74747741945462 0 0 0 -0.8660254037844388 -0.4999999999999998" fill="none" stroke="red" stroke-width="0.015" /><path d="M 0.6427876096865396 0.7660444431189778 A 1.732050807568878 1.732050807568878 0 0 0 -0.984807753012208 0.17364817766693028" fill="none" stroke="orange" stroke-width="0.015" /><path d="M -0.6427876096865395 -0.7660444431189779 A 0.8390996311772804 0.8390996311772804 0 0 1 -0.8660254037844385 0.5000000000000003" fill="none" stroke="orange" stroke-width="0.015" /><line stroke="orange" stroke-width="0.015" x1="0.0" x2="-0.0" y1="1.0" y2="-1.0" /><path d="M -0.6427876096865394 0.766044443118978 A 1.732050807568878 1.732050807568878 0 0 1 0.9848077530122081 0.17364817766692991" fill="none" stroke="royalblue" stroke-width="0.015" /><path d="M -0.3420201433256687 0.9396926207859084 A 2.747477419454624 2.747477419454624 0 0 1 0.8660254037844384 -0.5000000000000004" fill="none" stroke="royalblue" stroke-width="0.015" /><path d="M 0.6427876096865386 -0.7660444431189787 A 0.8390996311772801 0.8390996311772801 0 0 0 0.866025403784439 0.4999999999999993" fill="none" stroke="royalblue" stroke-width="0.015" /><path d="M -0.34202014332566855 -0.9396926207859084 A 1.1917535925942098 1.1917535925942098 0 0 0 0.984807753012208 -0.1736481776669304" fill="none" stroke="royalblue" stroke-width="0.015" /><path d="M -0.9848077530122081 -0.17364817766693003 A 1.1917535925942095 1.1917535925942095 0 0 0 0.34202014332566816 -0.9396926207859085" fill="none" stroke="orange" stroke-width="0.015" /></g><g transform="translate(750, 250) scale(208.33333333333334, -208.33333333333334)"><circle cx="0" cy="0" fill="none" r="1" stroke="black" stroke-width="0.015" /><path d="M 0.38268343236509045 0.9238795325112865 A 1.49660576266549 1.49660576266549 0 0 0 -1.0 1.2246467991473532e-16" fill="none" stroke="royalblue" stroke-width="0.015" /><path d="M -0.7071067811865477 -0.7071067811865475 A 0.6681786379192988 0.6681786379192988 0 0 1 -0.9238795325112867 0.3826834323650899" fill="none" stroke="royalblue" stroke-width="0.015" /><line stroke="royalblue" stroke-width="0.015" x1="0.0" x2="-0.0" y1="1.0" y2="-1.0" /><path d="M -0.7071067811865475 0.7071067811865476 A 1.4966057626654887 1.4966057626654887 0 0 1 0.9238795325112866 0.38268343236508995" fill="none" stroke="royalblue" stroke-width="0.015" /><path d="M -0.3826834323650897 0.9238795325112867 A 2.414213562373097 2.414213562373097 0 0 1 0.9238795325112865 -0.3826834323650904" fill="none" stroke="royalblue" stroke-width="0.015" /><path d="M 0.7071067811865474 -0.7071067811865477 A 0.9999999999999998 0.9999999999999998 0 0 0 0.7071067811865477 0.7071067811865474" fill="none" stroke="royalblue" stroke-width="0.015" /><path d="M -0.38268343236509034 -0.9238795325112865 A 1.4966057626654894 1.4966057626654894 0 0 0 1.0 -2.4492935982947064e-16" fill="none" stroke="royalblue" stroke-width="0.015" /><path d="M -0.9238795325112868 -0.38268343236508967 A 1.0000000000000002 1.0000000000000002 0 0 0 0.38268343236509 -0.9238795325112866" fill="none" stroke="royalblue" stroke-width="0.015" /></g><g transform="translate(1250, 250) scale(208.33333333333334, -208.33333333333334)"><circle cx="0" cy="0" fill="none" r="1" stroke="black" stroke-width="0.015" /><path d="M 0.34202014332566866 0.9396926207859084 A 1.7320508075688765 1.7320508075688765 0 0 0 -0.9848077530122081 -0.17364817766693003" fill="none" stroke="orange" stroke-width="0.015" /><path d="M -0.6427876096865395 -0.7660444431189779 A 0.8390996311772804 0.8390996311772804 0 0 1 -0.8660254037844385 0.5000000000000003" fill="none" stroke="orange" stroke-width="0.015" /><line stroke="orange" stroke-width="0.015" x1="0.0" x2="-0.0" y1="1.0" y2="-1.0" /><path d="M -0.6427876096865394 0.766044443118978 A 1.1917535925942113 1.1917535925942113 0 0 1 0.866025403784439 0.4999999999999993" fill="none" stroke="royalblue" stroke-width="0.015" /><path d="M -0.3420201433256687 0.9396926207859084 A 1.7320508075688772 1.7320508075688772 0 0 1 0.984807753012208 -0.1736481776669304" fill="none" stroke="royalblue" stroke-width="0.015" /><path d="M 0.8660254037844384 -0.5000000000000004 A 0.8390996311772804 0.8390996311772804 0 0 0 0.6427876096865396 0.7660444431189778" fill="none" stroke="royalblue" stroke-width="0.015" /><path d="M -0.34202014332566855 -0.9396926207859084 A 1.7320508075688759 1.7320508075688759 0 0 0 0.9848077530122081 0.17364817766692991" fill="none" stroke="royalblue" stroke-width="0.015" /><path d="M -0.8660254037844388 -0.4999999999999998 A 1.1917535925942093 1.1917535925942093 0 0 0 0.6427876096865386 -0.7660444431189787" fill="none" stroke="orange" stroke-width="0.015" /><path d="M -0.984807753012208 0.17364817766693028 A 1.7320508075688759 1.7320508075688759 0 0 0 0.34202014332566816 -0.9396926207859085" fill="none" stroke="red" stroke-width="0.015" /></g></svg>