<?xml version="1.0" encoding="utf-8" ?>
<svg baseProfile="tiny" height="500px" version="1.2" width="1500px" xmlns="http://www.w3.org/2000/svg" xmlns:ev="http://www.w3.org/2001/xml-events" xmlns:xlink="http://www.w3.org/1999/xlink"><defs /><g transform="translate(250, 250) scale(208.33333333333334, -208.33333333333334)"><circle cx="0" cy="0" fill="none" r="1" stroke="black" stroke-width="0.015" /><path d="M 6.123233995736766e-17 1.0 A 1.3763819204711734 1.3763819204711734 0 0 0 -0.9510565162951536 -0.3090169943749473" fill="none" stroke="orange" stroke-width="0.015" /><path d="M -0.20791169081775934 0.9781476007338057 A 4.704630109478456 4.704630109478456 0 0 1 0.5877852522924729 -0.8090169943749476" fill="none" stroke="royalblue" stroke-width="0.015" /><path d="M -0.40673664307580004 0.913545457642601 A 0.9004040442978397 0.9004040442978397 0 0 1 0.8660254037844386 0.5" fill="none" stroke="royalblue" stroke-width="0.015" /><path d="M -0.743144825477394 0.6691306063588585 A 0.3249196962329062 0.3249196962329062 0 0 0 -0.9945218953682734 0.10452846326765329" fill="none" stroke="royalblue" stroke-width="0.015" /><path d="M -0.8660254037844388 -0.4999999999999998 A 0.4452286853085366 0.4452286853085366 0 0 0 -0.20791169081775893 -0.9781476007338057" fill="none" stroke="red" stroke-width="0.015" /><path d="M -0.5877852522924732 -0.8090169943749473 A 0.4452286853085361 0.4452286853085361 0 0 0 0.20791169081775857 -0.9781476007338058" fill="none" stroke="royalblue" stroke-width="0.015" /><path d="M 0.40673664307580054 -0.9135454576426008 A 1.3763819204711736 1.3763819204711736 0 0 0 0.743144825477394 0.6691306063588585" fill="none" stroke="royalblue" stroke-width="0.015" /><path d="M -0.9945218953682734 -0.10452846326765305 A 2.246036773904215 2.246036773904215 0 0 0 0.7431448254773937 -0.6691306063588588" fill="none" stroke="royalblue" stroke-width="0.015" /><path d="M -0.587785252292473 0.8090169943749475 A 4.704630109478459 4.704630109478459 0 0 1 0.8660254037844384 -0.5000000000000004" fill="none" stroke="royalblue" stroke-width="0.015" /><path d="M -0.8660254037844385 0.5000000000000003 A 4.704630109478459 4.704630109478459 0 0 1 0.9945218953682733 -0.1045284632676543" fill="none" stroke="royalblue" stroke-width="0.015" /><path d="M -0.9510565162951535 0.3090169943749475 A 4.704630109478459 4.704630109478459 0 0 1 0.9945218953682734 0.10452846326765293" fill="none" stroke="royalblue" stroke-width="0.015" /><path d="M 0.9510565162951535 -0.3090169943749477 A 0.3249196962329062 0.3249196962329062 0 0 0 0.9510565162951536 0.3090169943749472" fill="none" stroke="royalblue" stroke-width="0.015" /><path d="M -0.7431448254773946 -0.6691306063588579 A 9.514364454222576 9.514364454222576 0 0 1 0.5877852522924734 0.8090169943749472" fill="none" stroke="orange" stroke-width="0.015" /><line stroke="orange" stroke-width="0.015" x1="-0.4067" x2="0.4067" y1="-0.9135" y2="0.9135" /><path d="M -1.8369701987210297e-16 -1.0 A 9.514364454222607 9.514364454222607 0 0 0 0.20791169081775904 0.9781476007338057" fill="none" stroke="orange" stroke-width="0.015" /></g><g transform="translate(750, 250) scale(208.33333333333334, -208.33333333333334)"><circle cx="0" cy="0" fill="none" r="1" stroke="black" stroke-width="0.015" /><path d="M 6.123233995736766e-17 1.0 A 1.5914908829822711 1.5914908829822711 0 0 0 -0.9009688679024191 -0.433883739117558" fill="none" stroke="royalblue" stroke-width="0.015" /><path d="M -0.22252093395631434 0.9749279121818236 A 8.875245474969764 8.875245474969764 0 0 1 0.43388373911755795 -0.9009688679024193" fill="none" stroke="royalblue" stroke-width="0.015" /><path d="M -0.43388373911755806 0.9009688679024191 A 1.0000000000000002 1.0000000000000002 0 0 1 0.9009688679024193 0.4338837391175579" fill="none" stroke="royalblue" stroke-width="0.015" /><path d="M -0.7818314824680297 0.6234898018587336 A 0.3499151339469729 0.3499151339469729 0 0 0 -1.0 1.2246467991473532e-16" fill="none" stroke="royalblue" stroke-width="0.015" /><path d="M -0.6234898018587336 -0.7818314824680297 A 0.34991513394697227 0.34991513394697227 0 0 0 -1.8369701987210297e-16 -1.0" fill="none" stroke="royalblue" stroke-width="0.015" /><path d="M 0.22252093395631423 -0.9749279121818236 A 1.591490882982271 1.591490882982271 0 0 0 0.78183148246803 0.6234898018587333" fill="none" stroke="royalblue" stroke-width="0.015" /><path d="M -0.9749279121818236 -0.22252093395631428 A 1.5914908829822707 1.5914908829822707 0 0 0 0.6234898018587334 -0.7818314824680299" fill="none" stroke="royalblue" stroke-width="0.015" /><path d="M -0.6234898018587335 0.7818314824680299 A 8.875245474969763 8.875245474969763 0 0 1 0.7818314824680297 -0.6234898018587337" fill="none" stroke="royalblue" stroke-width="0.015" /><path d="M -0.900968867902419 0.43388373911755823 A 8.875245474969763 8.875245474969763 0 0 1 0.9749279121818235 -0.22252093395631464" fill="none" stroke="royalblue" stroke-width="0.015" /><path d="M -0.9749279121818236 0.2225209339563145 A 8.875245474969763 8.875245474969763 0 0 1 1.0 -2.4492935982947064e-16" fill="none" stroke="royalblue" stroke-width="0.015" /><path d="M 0.900968867902419 -0.43388373911755834 A 0.34991513394697227 0.34991513394697227 0 0 0 0.9749279121818238 0.22252093395631328" fill="none" stroke="royalblue" stroke-width="0.015" /><path d="M -0.7818314824680299 -0.6234898018587334 A 8.875245474969764 8.875245474969764 0 0 1 0.6234898018587337 0.7818314824680296" fill="none" stroke="royalblue" stroke-width="0.015" /><line stroke="royalblue" stroke-width="0.015" x1="-0.4339" x2="0.4339" y1="-0.901" y2="0.901" /><line stroke="royalblue" stroke-width="0.015" x1="-0.2225" x2="0.2225" y1="-0.9749" y2="0.9749" /></g><g transform="translate(1250, 250) scale(208.33333333333334, -208.33333333333334)"><circle cx="0" cy="0" fill="none" r="1" stroke="black" stroke-width="0.015" /><path d="M 6.123233995736766e-17 1.0 A 1.3763819204711734 1.3763819204711734 0 0 0 -0.9510565162951536 -0.3090169943749473" fill="none" stroke="orange" stroke-width="0.015" /><line stroke="royalblue" stroke-width="0.015" x1="-0.2079" x2="0.2079" y1="0.9781" y2="-0.9781" /><path d="M -0.40673664307580004 0.913545457642601 A 1.376381920471174 1.376381920471174 0 0 1 0.9945218953682734 0.10452846326765293" fill="none" stroke="royalblue" stroke-width="0.015" /><path d="M -0.743144825477394 0.6691306063588585 A 0.3249196962329062 0.3249196962329062 0 0 0 -0.9945218953682734 0.10452846326765329" fill="none" stroke="royalblue" stroke-width="0.015" /><path d="M -0.7431448254773946 -0.6691306063588579 A 0.3249196962329062 0.3249196962329062 0 0 0 -0.20791169081775893 -0.9781476007338057" fill="none" stroke="royalblue" stroke-width="0.015" /><path d="M -1.8369701987210297e-16 -1.0 A 1.3763819204711736 1.3763819204711736 0 0 0 0.9510565162951536 0.3090169943749472" fill="none" stroke="royalblue" stroke-width="0.015" /><path d="M -0.9945218953682734 -0.10452846326765305 A 1.3763819204711745 1.3763819204711745 0 0 0 0.40673664307580054 -0.9135454576426008" fill="none" stroke="royalblue" stroke-width="0.015" /><line stroke="royalblue" stroke-width="0.015" x1="-0.5878" x2="0.5878" y1="0.809" y2="-0.809" /><line stroke="royalblue" stroke-width="0.015" x1="-0.866" x2="0.866" y1="0.5" y2="-0.5" /><line stroke="royalblue" stroke-width="0.015" x1="-0.9511" x2="0.9511" y1="0.309" y2="-0.309" /><path d="M 0.7431448254773937 -0.6691306063588588 A 0.3249196962329062 0.3249196962329062 0 0 0 0.9945218953682733 -0.1045284632676543" fill="none" stroke="royalblue" stroke-width="0.015" /><line stroke="orange" stroke-width="0.015" x1="-0.866" x2="0.866" y1="-0.5" y2="0.5" /><line stroke="orange" stroke-width="0.015" x1="-0.5878" x2="0.5878" y1="-0.809" y2="0.809" /><line stroke="orange" stroke-width="0.015" x1="-0.4067" x2="0.4067" y1="-0.9135" y2="0.9135" /><path d="M 0.743144825477394 0.6691306063588585 A 0.32491969623290584 0.32491969623290584 0 0 0 0.20791169081775904 0.9781476007338057" fill="none" stroke="red" stroke-width="0.015" /></g></svg>