<?xml version="1.0" encoding="utf-8" ?>
<svg baseProfile="tiny" height="500px" version="1.2" width="1500px" xmlns="http://www.w3.org/2000/svg" xmlns:ev="http://www.w3.org/2001/xml-events" xmlns:xlink="http://www.w3.org/1999/xlink"><defs /><g transform="translate(250, 250) scale(208.33333333333334, -208.33333333333334)"><circle cx="0" cy="0" fill="none" r="1" stroke="black" stroke-width="0.015" /><path d="M -0.40673664307580004 0.913545457642601 A 1.1106125148291932 1.1106125148291932 0 0 1 0.9510565162951536 0.3090169943749472" fill="none" stroke="royalblue" stroke-width="0.015" /><path d="M -0.587785252292473 0.8090169943749475 A 0.7265425280053608 0.7265425280053608 0 0 1 0.5877852522924734 0.8090169943749472" fill="none" stroke="royalblue" stroke-width="0.015" /><path d="M -0.8660254037844385 0.5000000000000003 A 0.7265425280053609 0.7265425280053609 0 0 0 -0.7431448254773946 -0.6691306063588579" fill="none" stroke="red" stroke-width="0.015" /><path d="M -0.5877852522924732 -0.8090169943749473 A 0.5773502691896261 0.5773502691896261 0 0 0 0.40673664307580054 -0.9135454576426008" fill="none" stroke="orange" stroke-width="0.015" /><path d="M -0.4067366430758001 -0.913545457642601 A 1.1106125148291923 1.1106125148291923 0 0 0 0.9510565162951535 -0.3090169943749477" fill="none" stroke="royalblue" stroke-width="0.015" /><path d="M 0.20791169081775857 -0.9781476007338058 A 0.7265425280053608 0.7265425280053608 0 0 0 0.9945218953682733 -0.1045284632676543" fill="none" stroke="royalblue" stroke-width="0.015" /><path d="M 0.9945218953682734 0.10452846326765293 A 0.5773502691896263 0.5773502691896263 0 0 0 0.4067366430758002 0.9135454576426009" fill="none" stroke="royalblue" stroke-width="0.015" /><path d="M -0.20791169081775934 0.9781476007338057 A 1.376381920471173 1.376381920471173 0 0 0 -0.8660254037844388 -0.4999999999999998" fill="none" stroke="orange" stroke-width="0.015" /><path d="M -0.9510565162951536 -0.3090169943749473 A 9.514364454222576 9.514364454222576 0 0 1 0.8660254037844386 0.5" fill="none" stroke="royalblue" stroke-width="0.015" /><path d="M 6.123233995736766e-17 1.0 A 0.7265425280053612 0.7265425280053612 0 0 0 -0.9510565162951535 0.3090169943749475" fill="none" stroke="orange" stroke-width="0.015" /><path d="M -1.8369701987210297e-16 -1.0 A 9.514364454222607 9.514364454222607 0 0 0 0.20791169081775904 0.9781476007338057" fill="none" stroke="royalblue" stroke-width="0.015" /><path d="M -0.9945218953682734 0.10452846326765329 A 0.90040404429784 0.90040404429784 0 0 0 -0.20791169081775893 -0.9781476007338057" fill="none" stroke="royalblue" stroke-width="0.015" /><path d="M -0.9945218953682734 -0.10452846326765305 A 3.0776835371752527 3.0776835371752527 0 0 0 0.8660254037844384 -0.5000000000000004" fill="none" stroke="royalblue" stroke-width="0.015" /><path d="M -0.743144825477394 0.6691306063588585 A 9.514364454222589 9.514364454222589 0 0 0 0.5877852522924729 -0.8090169943749476" fill="none" stroke="orange" stroke-width="0.015" /><path d="M 0.7431448254773937 -0.6691306063588588 A 0.9004040442978409 0.9004040442978409 0 0 0 0.743144825477394 0.6691306063588585" fill="none" stroke="royalblue" stroke-width="0.015" /></g><g transform="translate(750, 250) scale(208.33333333333334, -208.33333333333334)"><circle cx="0" cy="0" fill="none" r="1" stroke="black" stroke-width="0.015" /><path d="M -0.43388373911755806 0.9009688679024191 A 1.2539603376627053 1.2539603376627053 0 0 1 0.9749279121818238 0.22252093395631328" fill="none" stroke="royalblue" stroke-width="0.015" /><path d="M -0.6234898018587335 0.7818314824680299 A 0.797473388882404 0.797473388882404 0 0 1 0.6234898018587337 0.7818314824680296" fill="none" stroke="royalblue" stroke-width="0.015" /><path d="M -0.7818314824680299 -0.6234898018587334 A 0.6283416453672144 0.6283416453672144 0 0 0 0.22252093395631423 -0.9749279121818236" fill="none" stroke="royalblue" stroke-width="0.015" /><path d="M -0.6234898018587336 -0.7818314824680297 A 1.253960337662704 1.253960337662704 0 0 0 0.900968867902419 -0.43388373911755834" fill="none" stroke="royalblue" stroke-width="0.015" /><path d="M -1.8369701987210297e-16 -1.0 A 0.797473388882404 0.797473388882404 0 0 0 0.9749279121818235 -0.22252093395631464" fill="none" stroke="royalblue" stroke-width="0.015" /><path d="M 1.0 -2.4492935982947064e-16 A 0.6283416453672144 0.6283416453672144 0 0 0 0.43388373911755757 0.9009688679024194" fill="none" stroke="royalblue" stroke-width="0.015" /><path d="M -0.22252093395631434 0.9749279121818236 A 1.253960337662704 1.253960337662704 0 0 0 -0.9009688679024191 -0.433883739117558" fill="none" stroke="royalblue" stroke-width="0.015" /><path d="M -0.9749279121818236 -0.22252093395631428 A 8.875245474969764 8.875245474969764 0 0 1 0.9009688679024193 0.4338837391175579" fill="none" stroke="royalblue" stroke-width="0.015" /><path d="M 6.123233995736766e-17 1.0 A 0.6283416453672139 0.6283416453672139 0 0 0 -0.900968867902419 0.43388373911755823" fill="none" stroke="royalblue" stroke-width="0.015" /><line stroke="royalblue" stroke-width="0.015" x1="-0.2225" x2="0.2225" y1="-0.9749" y2="0.9749" /><path d="M -0.9749279121818236 0.2225209339563145 A 0.7974733888824039 0.7974733888824039 0 0 0 -0.4338837391175583 -0.900968867902419" fill="none" stroke="royalblue" stroke-width="0.015" /><path d="M -1.0 1.2246467991473532e-16 A 2.85783580927238 2.85783580927238 0 0 0 0.7818314824680297 -0.6234898018587337" fill="none" stroke="royalblue" stroke-width="0.015" /><path d="M -0.7818314824680297 0.6234898018587336 A 4.381286267534821 4.381286267534821 0 0 0 0.43388373911755795 -0.9009688679024193" fill="none" stroke="royalblue" stroke-width="0.015" /><path d="M 0.6234898018587334 -0.7818314824680299 A 1.0 1.0 0 0 0 0.78183148246803 0.6234898018587333" fill="none" stroke="royalblue" stroke-width="0.015" /></g><g transform="translate(1250, 250) scale(208.33333333333334, -208.33333333333334)"><circle cx="0" cy="0" fill="none" r="1" stroke="black" stroke-width="0.015" /><path d="M -0.587785252292473 0.8090169943749475 A 1.3763819204711736 1.3763819204711736 0 0 1 0.9510565162951536 0.3090169943749472" fill="none" stroke="royalblue" stroke-width="0.015" /><path d="M -0.743144825477394 0.6691306063588585 A 0.9004040442978399 0.9004040442978399 0 0 1 0.5877852522924734 0.8090169943749472" fill="none" stroke="royalblue" stroke-width="0.015" /><path d="M -0.7431448254773946 -0.6691306063588579 A 0.5773502691896255 0.5773502691896255 0 0 0 0.20791169081775857 -0.9781476007338058" fill="none" stroke="orange" stroke-width="0.015" /><path d="M -0.5877852522924732 -0.8090169943749473 A 1.3763819204711736 1.3763819204711736 0 0 0 0.9510565162951535 -0.3090169943749477" fill="none" stroke="royalblue" stroke-width="0.015" /><path d="M -1.8369701987210297e-16 -1.0 A 0.9004040442978394 0.9004040442978394 0 0 0 0.9945218953682733 -0.1045284632676543" fill="none" stroke="royalblue" stroke-width="0.015" /><path d="M 0.9945218953682734 0.10452846326765293 A 0.5773502691896263 0.5773502691896263 0 0 0 0.4067366430758002 0.9135454576426009" fill="none" stroke="royalblue" stroke-width="0.015" /><path d="M -0.40673664307580004 0.913545457642601 A 1.1106125148291925 1.1106125148291925 0 0 0 -0.8660254037844388 -0.4999999999999998" fill="none" stroke="orange" stroke-width="0.015" /><path d="M -0.9510565162951536 -0.3090169943749473 A 9.514364454222576 9.514364454222576 0 0 1 0.8660254037844386 0.5" fill="none" stroke="royalblue" stroke-width="0.015" /><path d="M 6.123233995736766e-17 1.0 A 0.7265425280053612 0.7265425280053612 0 0 0 -0.9510565162951535 0.3090169943749475" fill="none" stroke="orange" stroke-width="0.015" /><line stroke="royalblue" stroke-width="0.015" x1="-0.2079" x2="0.2079" y1="-0.9781" y2="0.9781" /><path d="M -0.9945218953682734 0.10452846326765329 A 0.7265425280053609 0.7265425280053609 0 0 0 -0.4067366430758001 -0.913545457642601" fill="none" stroke="royalblue" stroke-width="0.015" /><path d="M -0.9945218953682734 -0.10452846326765305 A 3.0776835371752527 3.0776835371752527 0 0 0 0.8660254037844384 -0.5000000000000004" fill="none" stroke="royalblue" stroke-width="0.015" /><path d="M -0.8660254037844385 0.5000000000000003 A 4.704630109478456 4.704630109478456 0 0 0 0.5877852522924729 -0.8090169943749476" fill="none" stroke="orange" stroke-width="0.015" /><path d="M 0.7431448254773937 -0.6691306063588588 A 0.9004040442978409 0.9004040442978409 0 0 0 0.743144825477394 0.6691306063588585" fill="none" stroke="royalblue" stroke-width="0.015" /><path d="M -0.20791169081775934 0.9781476007338057 A 9.514364454222568 9.514364454222568 0 0 1 0.40673664307580054 -0.9135454576426008" fill="none" stroke="red" stroke-width="0.015" /></g></svg>