<?xml version="1.0" encoding="utf-8" ?>
<svg baseProfile="tiny" height="500px" version="1.2" width="1500px" xmlns="http://www.w3.org/2000/svg" xmlns:ev="http://www.w3.org/2001/xml-events" xmlns:xlink="http://www.w3.org/1999/xlink"><defs /><g transform="translate(250, 250) scale(208.33333333333334, -208.33333333333334)"><circle cx="0" cy="0" fill="none" r="1" stroke="black" stroke-width="0.015" /><line stroke="royalblue" stroke-width="0.015" x1="0.0" x2="-0.0" y1="1.0" y2="-1.0" /><path d="M -0.587785252292473 0.8090169943749475 A 0.7265425280053608 0.7265425280053608 0 0 1 0.5877852522924734 0.8090169943749472" fill="none" stroke="red" stroke-width="0.015" /><path d="M -0.743144825477394 0.6691306063588585 A 0.3249196962329062 0.3249196962329062 0 0 0 -0.9945218953682734 0.10452846326765329" fill="none" stroke="orange" stroke-width="0.015" /><path d="M -0.8660254037844385 0.5000000000000003 A 0.9004040442978398 0.9004040442978398 0 0 0 -0.5877852522924732 -0.8090169943749473" fill="none" stroke="royalblue" stroke-width="0.015" /><path d="M -0.9510565162951535 0.3090169943749475 A 0.90040404429784 0.90040404429784 0 0 0 -0.4067366430758001 -0.913545457642601" fill="none" stroke="royalblue" stroke-width="0.015" /><path d="M -0.7431448254773946 -0.6691306063588579 A 0.3249196962329062 0.3249196962329062 0 0 0 -0.20791169081775893 -0.9781476007338057" fill="none" stroke="royalblue" stroke-width="0.015" /><path d="M 0.20791169081775857 -0.9781476007338058 A 0.7265425280053608 0.7265425280053608 0 0 0 0.9945218953682733 -0.1045284632676543" fill="none" stroke="royalblue" stroke-width="0.015" /><path d="M 0.40673664307580054 -0.9135454576426008 A 0.9004040442978395 0.9004040442978395 0 0 0 0.9510565162951536 0.3090169943749472" fill="none" stroke="royalblue" stroke-width="0.015" /><path d="M 0.9510565162951535 -0.3090169943749477 A 0.4452286853085364 0.4452286853085364 0 0 0 0.8660254037844386 0.5" fill="none" stroke="royalblue" stroke-width="0.015" /><path d="M -0.20791169081775934 0.9781476007338057 A 1.376381920471173 1.376381920471173 0 0 0 -0.8660254037844388 -0.4999999999999998" fill="none" stroke="royalblue" stroke-width="0.015" /><path d="M -0.9945218953682734 -0.10452846326765305 A 3.0776835371752496 3.0776835371752496 0 0 1 0.743144825477394 0.6691306063588585" fill="none" stroke="orange" stroke-width="0.015" /><path d="M 0.5877852522924729 -0.8090169943749476 A 1.732050807568878 1.732050807568878 0 0 0 0.4067366430758002 0.9135454576426009" fill="none" stroke="orange" stroke-width="0.015" /><path d="M 0.9945218953682734 0.10452846326765293 A 0.7265425280053613 0.7265425280053613 0 0 0 0.20791169081775904 0.9781476007338057" fill="none" stroke="royalblue" stroke-width="0.015" /><path d="M -0.40673664307580004 0.913545457642601 A 4.704630109478462 4.704630109478462 0 0 1 0.7431448254773937 -0.6691306063588588" fill="none" stroke="orange" stroke-width="0.015" /><path d="M -0.9510565162951536 -0.3090169943749473 A 2.246036773904215 2.246036773904215 0 0 0 0.8660254037844384 -0.5000000000000004" fill="none" stroke="royalblue" stroke-width="0.015" /></g><g transform="translate(750, 250) scale(208.33333333333334, -208.33333333333334)"><circle cx="0" cy="0" fill="none" r="1" stroke="black" stroke-width="0.015" /><line stroke="royalblue" stroke-width="0.015" x1="0.0" x2="-0.0" y1="1.0" y2="-1.0" /><path d="M -0.6234898018587335 0.7818314824680299 A 0.34991513394697227 0.34991513394697227 0 0 0 -0.9749279121818236 0.2225209339563145" fill="none" stroke="royalblue" stroke-width="0.015" /><path d="M -0.7818314824680297 0.6234898018587336 A 0.9999999999999999 0.9999999999999999 0 0 0 -0.6234898018587336 -0.7818314824680297" fill="none" stroke="royalblue" stroke-width="0.015" /><path d="M -0.900968867902419 0.43388373911755823 A 1.0000000000000002 1.0000000000000002 0 0 0 -0.4338837391175583 -0.900968867902419" fill="none" stroke="royalblue" stroke-width="0.015" /><path d="M -0.7818314824680299 -0.6234898018587334 A 0.3499151339469726 0.3499151339469726 0 0 0 -0.2225209339563146 -0.9749279121818236" fill="none" stroke="royalblue" stroke-width="0.015" /><path d="M 0.22252093395631423 -0.9749279121818236 A 0.7974733888824038 0.7974733888824038 0 0 0 1.0 -2.4492935982947064e-16" fill="none" stroke="royalblue" stroke-width="0.015" /><path d="M 0.43388373911755795 -0.9009688679024193 A 1.0 1.0 0 0 0 0.9009688679024193 0.4338837391175579" fill="none" stroke="royalblue" stroke-width="0.015" /><path d="M 0.9749279121818235 -0.22252093395631464 A 0.4815746188075289 0.4815746188075289 0 0 0 0.78183148246803 0.6234898018587333" fill="none" stroke="royalblue" stroke-width="0.015" /><path d="M -0.22252093395631434 0.9749279121818236 A 1.253960337662704 1.253960337662704 0 0 0 -0.9009688679024191 -0.433883739117558" fill="none" stroke="royalblue" stroke-width="0.015" /><path d="M -1.0 1.2246467991473532e-16 A 2.076521396572337 2.076521396572337 0 0 1 0.6234898018587337 0.7818314824680296" fill="none" stroke="royalblue" stroke-width="0.015" /><path d="M 0.6234898018587334 -0.7818314824680299 A 1.5914908829822725 1.5914908829822725 0 0 0 0.43388373911755757 0.9009688679024194" fill="none" stroke="royalblue" stroke-width="0.015" /><path d="M 0.9749279121818238 0.22252093395631328 A 0.6283416453672145 0.6283416453672145 0 0 0 0.2225209339563147 0.9749279121818235" fill="none" stroke="royalblue" stroke-width="0.015" /><path d="M -0.43388373911755806 0.9009688679024191 A 4.381286267534825 4.381286267534825 0 0 1 0.7818314824680297 -0.6234898018587337" fill="none" stroke="royalblue" stroke-width="0.015" /><path d="M -0.9749279121818236 -0.22252093395631428 A 2.8578358092723795 2.8578358092723795 0 0 0 0.900968867902419 -0.43388373911755834" fill="none" stroke="royalblue" stroke-width="0.015" /></g><g transform="translate(1250, 250) scale(208.33333333333334, -208.33333333333334)"><circle cx="0" cy="0" fill="none" r="1" stroke="black" stroke-width="0.015" /><line stroke="royalblue" stroke-width="0.015" x1="0.0" x2="-0.0" y1="1.0" y2="-1.0" /><path d="M -0.587785252292473 0.8090169943749475 A 0.3249196962329062 0.3249196962329062 0 0 0 -0.9510565162951535 0.3090169943749475" fill="none" stroke="orange" stroke-width="0.015" /><path d="M -0.743144825477394 0.6691306063588585 A 1.1106125148291928 1.1106125148291928 0 0 0 -0.5877852522924732 -0.8090169943749473" fill="none" stroke="royalblue" stroke-width="0.015" /><path d="M -0.8660254037844385 0.5000000000000003 A 1.1106125148291932 1.1106125148291932 0 0 0 -0.4067366430758001 -0.913545457642601" fill="none" stroke="royalblue" stroke-width="0.015" /><path d="M -0.7431448254773946 -0.6691306063588579 A 0.3249196962329062 0.3249196962329062 0 0 0 -0.20791169081775893 -0.9781476007338057" fill="none" stroke="royalblue" stroke-width="0.015" /><path d="M 0.20791169081775857 -0.9781476007338058 A 0.90040404429784 0.90040404429784 0 0 0 0.9945218953682734 0.10452846326765293" fill="none" stroke="royalblue" stroke-width="0.015" /><path d="M 0.40673664307580054 -0.9135454576426008 A 1.1106125148291923 1.1106125148291923 0 0 0 0.8660254037844386 0.5" fill="none" stroke="royalblue" stroke-width="0.015" /><path d="M 0.9945218953682733 -0.1045284632676543 A 0.4452286853085369 0.4452286853085369 0 0 0 0.743144825477394 0.6691306063588585" fill="none" stroke="royalblue" stroke-width="0.015" /><path d="M -0.20791169081775934 0.9781476007338057 A 1.376381920471173 1.376381920471173 0 0 0 -0.8660254037844388 -0.4999999999999998" fill="none" stroke="royalblue" stroke-width="0.015" /><path d="M -0.9945218953682734 -0.10452846326765305 A 2.246036773904216 2.246036773904216 0 0 1 0.5877852522924734 0.8090169943749472" fill="none" stroke="orange" stroke-width="0.015" /><path d="M 0.5877852522924729 -0.8090169943749476 A 1.732050807568878 1.732050807568878 0 0 0 0.4067366430758002 0.9135454576426009" fill="none" stroke="orange" stroke-width="0.015" /><path d="M 0.9510565162951536 0.3090169943749472 A 0.5773502691896263 0.5773502691896263 0 0 0 0.20791169081775904 0.9781476007338057" fill="none" stroke="royalblue" stroke-width="0.015" /><path d="M -0.40673664307580004 0.913545457642601 A 3.0776835371752553 3.0776835371752553 0 0 1 0.8660254037844384 -0.5000000000000004" fill="none" stroke="orange" stroke-width="0.015" /><path d="M -0.9510565162951536 -0.3090169943749473 A 3.077683537175253 3.077683537175253 0 0 0 0.9510565162951535 -0.3090169943749477" fill="none" stroke="royalblue" stroke-width="0.015" /><path d="M -0.9945218953682734 0.10452846326765329 A 3.0776835371752487 3.0776835371752487 0 0 0 0.7431448254773937 -0.6691306063588588" fill="none" stroke="red" stroke-width="0.015" /></g></svg>