<svg baseProfile="tiny" height="500px" version="1.2" viewBox="-1.2,-1.2,2.4,2.4" width="500px" xmlns="http://www.w3.org/2000/svg" xmlns:ev="http://www.w3.org/2001/xml-events" xmlns:xlink="http://www.w3.org/1999/xlink"><defs /><g transform="scale(1,-1)"><circle cx="0" cy="0" fill="none" r="1" stroke="black" stroke-width="0.015" /><path d="M -0.0950560433041827 0.9954719225730846 A 0.1437782939949738 0.1437782939949738 0 0 0 -0.3716624556603274 0.9283679330160727" fill="none" stroke="royalblue" stroke-width="0.015" /><path d="M -0.1892512443604101 0.9819286972627067 A 0.24259737504064935 0.24259737504064935 0 0 0 -0.6181589862206053 0.7860530947427874" fill="none" stroke="royalblue" stroke-width="0.015" /><path d="M -0.28173255684142967 0.9594929736144974 A 0.24259737504064796 0.24259737504064796 0 0 0 -0.6900790114821118 0.7237340381050703" fill="none" stroke="royalblue" stroke-width="0.015" /><path d="M -0.7557495743542582 0.6548607339452852 A 0.14377829399497302 0.14377829399497302 0 0 1 -0.5406408174555977 0.8412535328311811" fill="none" stroke="royalblue" stroke-width="0.015" /><path d="M -0.8660254037844385 0.5000000000000003 A 0.14377829399497227 0.14377829399497227 0 0 0 -0.9718115683235417 0.23575893550942736" fill="none" stroke="royalblue" stroke-width="0.015" /><path d="M -0.9096319953545184 0.4154150130018863 A 0.24259737504064888 0.24259737504064888 0 0 0 -0.998867339183008 -0.047581915823742445" fill="none" stroke="royalblue" stroke-width="0.015" /><path d="M -0.9450008187146685 0.32706796331742183 A 0.24259737504064796 0.24259737504064796 0 0 0 -0.9898214418809328 -0.14231483827328492" fill="none" stroke="royalblue" stroke-width="0.015" /><path d="M -0.9718115683235419 -0.23575893550942667 A 0.1437782939949715 0.1437782939949715 0 0 1 -0.998867339183008 0.04758191582374269" fill="none" stroke="royalblue" stroke-width="0.015" /><path d="M -0.9096319953545183 -0.4154150130018865 A 0.14377829399497227 0.14377829399497227 0 0 0 -0.7557495743542584 -0.654860733945285" fill="none" stroke="royalblue" stroke-width="0.015" /><path d="M -0.8660254037844388 -0.4999999999999998 A 0.19273420248128006 0.19273420248128006 0 0 0 -0.6181589862206055 -0.7860530947427873" fill="none" stroke="royalblue" stroke-width="0.015" /><path d="M -0.8145759520503358 -0.580056909571198 A 0.19273420248128065 0.19273420248128065 0 0 0 -0.5406408174555974 -0.8412535328311812" fill="none" stroke="royalblue" stroke-width="0.015" /><path d="M -0.690079011482112 -0.7237340381050702 A 0.14377829399497302 0.14377829399497302 0 0 0 -0.4582265217274106 -0.8888354486549234" fill="none" stroke="royalblue" stroke-width="0.015" /><path d="M 0.0950560433041835 0.9954719225730845 A 0.1437782939949738 0.1437782939949738 0 0 1 0.37166245566032813 0.9283679330160723" fill="none" stroke="royalblue" stroke-width="0.015" /><path d="M 0.1892512443604107 0.9819286972627066 A 0.24259737504064935 0.24259737504064935 0 0 1 0.6181589862206056 0.7860530947427872" fill="none" stroke="royalblue" stroke-width="0.015" /><path d="M 0.28173255684142984 0.9594929736144974 A 0.24259737504064888 0.24259737504064888 0 0 1 0.690079011482112 0.7237340381050701" fill="none" stroke="royalblue" stroke-width="0.015" /><path d="M 0.7557495743542587 0.6548607339452845 A 0.14377829399497227 0.14377829399497227 0 0 0 0.5406408174555983 0.8412535328311808" fill="none" stroke="royalblue" stroke-width="0.015" /><path d="M 0.8660254037844386 0.5 A 0.14377829399497458 0.14377829399497458 0 0 1 0.9718115683235417 0.23575893550942742" fill="none" stroke="royalblue" stroke-width="0.015" /><path d="M 0.9096319953545186 0.415415013001886 A 0.24259737504064935 0.24259737504064935 0 0 1 0.998867339183008 -0.04758191582374281" fill="none" stroke="royalblue" stroke-width="0.015" /><path d="M 0.9450008187146686 0.3270679633174215 A 0.24259737504064796 0.24259737504064796 0 0 1 0.9898214418809327 -0.1423148382732853" fill="none" stroke="royalblue" stroke-width="0.015" /><path d="M 0.9718115683235418 -0.23575893550942703 A 0.14377829399497302 0.14377829399497302 0 0 0 0.998867339183008 0.04758191582374232" fill="none" stroke="royalblue" stroke-width="0.015" /><path d="M 0.9096319953545183 -0.41541501300188644 A 0.1437782939949715 0.1437782939949715 0 0 1 0.7557495743542584 -0.654860733945285" fill="none" stroke="royalblue" stroke-width="0.015" /><path d="M 0.8660254037844384 -0.5000000000000004 A 0.1927342024812795 0.1927342024812795 0 0 1 0.6181589862206052 -0.7860530947427875" fill="none" stroke="royalblue" stroke-width="0.015" /><path d="M 0.8145759520503356 -0.5800569095711983 A 0.19273420248128123 0.19273420248128123 0 0 1 0.5406408174555971 -0.8412535328311814" fill="none" stroke="royalblue" stroke-width="0.015" /><path d="M 0.6900790114821118 -0.7237340381050704 A 0.1437782939949738 0.1437782939949738 0 0 1 0.45822652172740946 -0.8888354486549239" fill="none" stroke="royalblue" stroke-width="0.015" /><line stroke="royalblue" stroke-width="0.015" x1="0.0" x2="-0.0" y1="1.0" y2="-1.0" /><path d="M -0.45822652172741035 0.8888354486549235 A 3.405687238889246 3.405687238889246 0 0 0 -0.09505604330418338 -0.9954719225730846" fill="none" stroke="royalblue" stroke-width="0.015" /><path d="M 0.4582265217274107 0.8888354486549234 A 3.405687238889246 3.405687238889246 0 0 1 0.09505604330418302 -0.9954719225730846" fill="none" stroke="royalblue" stroke-width="0.015" /><path d="M -0.8145759520503357 0.5800569095711983 A 1.556030372975441 1.556030372975441 0 0 0 -0.18925124436041058 -0.9819286972627066" fill="none" stroke="royalblue" stroke-width="0.015" /><path d="M 0.814575952050336 0.5800569095711979 A 1.556030372975443 1.556030372975443 0 0 1 0.18925124436040933 -0.9819286972627068" fill="none" stroke="royalblue" stroke-width="0.015" /><path d="M -0.9898214418809327 0.14231483827328517 A 0.866504932543063 0.866504932543063 0 0 0 -0.2817325568414297 -0.9594929736144974" fill="none" stroke="royalblue" stroke-width="0.015" /><path d="M 0.9898214418809328 0.1423148382732848 A 0.8665049325430627 0.8665049325430627 0 0 1 0.28173255684142934 -0.9594929736144975" fill="none" stroke="royalblue" stroke-width="0.015" /><path d="M -0.9450008187146685 -0.3270679633174216 A 0.45668469790355465 0.45668469790355465 0 0 0 -0.371662455660328 -0.9283679330160725" fill="none" stroke="royalblue" stroke-width="0.015" /><path d="M 0.9450008187146683 -0.32706796331742194 A 0.45668469790355515 0.45668469790355515 0 0 1 0.3716624556603277 -0.9283679330160726" fill="none" stroke="royalblue" stroke-width="0.015" /></g></svg>