<svg baseProfile="tiny" height="500px" version="1.2" viewBox="-1.2,-1.2,2.4,2.4" width="500px" xmlns="http://www.w3.org/2000/svg" xmlns:ev="http://www.w3.org/2001/xml-events" xmlns:xlink="http://www.w3.org/1999/xlink"><defs /><g transform="scale(1,-1)"><circle cx="0" cy="0" fill="none" r="1" stroke="black" stroke-width="0.015" /><path d="M -0.3420201433256687 0.9396926207859084 A 0.5773502691896255 0.5773502691896255 0 0 0 -0.984807753012208 0.17364817766693028" fill="none" stroke="royalblue" stroke-width="0.015" /><path d="M -0.6427876096865394 0.766044443118978 A 0.8390996311772798 0.8390996311772798 0 0 0 -0.8660254037844388 -0.4999999999999998" fill="none" stroke="royalblue" stroke-width="0.015" /><path d="M -0.8660254037844385 0.5000000000000003 A 0.8390996311772804 0.8390996311772804 0 0 0 -0.6427876096865395 -0.7660444431189779" fill="none" stroke="royalblue" stroke-width="0.015" /><path d="M -0.9848077530122081 -0.17364817766693003 A 0.5773502691896261 0.5773502691896261 0 0 0 -0.34202014332566855 -0.9396926207859084" fill="none" stroke="royalblue" stroke-width="0.015" /><path d="M 0.34202014332566866 0.9396926207859084 A 0.5773502691896261 0.5773502691896261 0 0 1 0.9848077530122081 0.17364817766692991" fill="none" stroke="royalblue" stroke-width="0.015" /><path d="M 0.6427876096865396 0.7660444431189778 A 0.8390996311772804 0.8390996311772804 0 0 1 0.8660254037844384 -0.5000000000000004" fill="none" stroke="royalblue" stroke-width="0.015" /><path d="M 0.866025403784439 0.4999999999999993 A 0.8390996311772801 0.8390996311772801 0 0 1 0.6427876096865386 -0.7660444431189787" fill="none" stroke="royalblue" stroke-width="0.015" /><path d="M 0.984807753012208 -0.1736481776669304 A 0.5773502691896263 0.5773502691896263 0 0 1 0.34202014332566816 -0.9396926207859085" fill="none" stroke="royalblue" stroke-width="0.015" /><line stroke="royalblue" stroke-width="0.015" x1="0.0" x2="-0.0" y1="1.0" y2="-1.0" /></g></svg>