<svg baseProfile="tiny" height="500px" version="1.2" viewBox="-1.2,-1.2,2.4,2.4" width="500px" xmlns="http://www.w3.org/2000/svg" xmlns:ev="http://www.w3.org/2001/xml-events" xmlns:xlink="http://www.w3.org/1999/xlink"><defs /><g transform="scale(1,-1)"><circle cx="0" cy="0" fill="none" r="1" stroke="black" stroke-width="0.015" /><path d="M -0.055087760355865385 0.9984815164333162 A 0.0828623624507688 0.0828623624507688 0 0 0 -0.21868109120637577 0.9757963826274356" fill="none" stroke="royalblue" stroke-width="0.015" /><path d="M -0.11000822099407924 0.9939306773179495 A 0.13866783986818013 0.13866783986818013 0 0 0 -0.3763093719478354 0.9264940672148018" fill="none" stroke="royalblue" stroke-width="0.015" /><path d="M -0.16459459028073384 0.9863613034027224 A 0.13866783986817774 0.13866783986817774 0 0 0 -0.42677643549640365 0.9043571606975775" fill="none" stroke="royalblue" stroke-width="0.015" /><path d="M -0.47594739303707356 0.8794737512064891 A 0.08286236245076613 0.08286236245076613 0 0 1 -0.32469946920468346 0.9458172417006346" fill="none" stroke="royalblue" stroke-width="0.015" /><path d="M -0.5698080575102662 0.8217778152252452 A 0.08286236245077015 0.08286236245077015 0 0 0 -0.6972968010939955 0.7167825131684512" fill="none" stroke="royalblue" stroke-width="0.015" /><path d="M -0.6142127126896678 0.7891405093963936 A 0.13866783986818093 0.13866783986818093 0 0 0 -0.8057651056609781 0.59223525266498" fill="none" stroke="royalblue" stroke-width="0.015" /><path d="M -0.6567520240477345 0.7541066097768963 A 0.13866783986817854 0.13866783986817854 0 0 0 -0.8371664782625285 0.5469481581224268" fill="none" stroke="royalblue" stroke-width="0.015" /><path d="M -0.8660254037844385 0.5000000000000003 A 0.0828623624507648 0.0828623624507648 0 0 1 -0.7719166509163209 0.635723748209968" fill="none" stroke="royalblue" stroke-width="0.015" /><path d="M -0.9157733266550575 0.4016954246529694 A 0.08286236245076613 0.08286236245076613 0 0 0 -0.9694002659393305 0.24548548714079907" fill="none" stroke="royalblue" stroke-width="0.015" /><path d="M -0.9365112411970549 0.3506375551927543 A 0.13866783986817774 0.13866783986817774 0 0 0 -0.9965844930066698 0.08257934547233267" fill="none" stroke="royalblue" stroke-width="0.015" /><path d="M -0.9544050018795073 0.2985148110016949 A 0.13866783986817932 0.13866783986817932 0 0 0 -0.9996203070249514 0.0275543423681619" fill="none" stroke="royalblue" stroke-width="0.015" /><path d="M -0.9996203070249514 -0.027554342368161656 A 0.08286236245076613 0.08286236245076613 0 0 1 -0.9905220846375032 0.13735355781840808" fill="none" stroke="royalblue" stroke-width="0.015" /><path d="M -0.9905220846375034 -0.13735355781840786 A 0.0828623624507688 0.0828623624507688 0 0 0 -0.9544050018795074 -0.2985148110016947" fill="none" stroke="royalblue" stroke-width="0.015" /><path d="M -0.9814514932524179 -0.19171063192373855 A 0.13866783986818013 0.13866783986818013 0 0 0 -0.8922542386183941 -0.4515333583108891" fill="none" stroke="royalblue" stroke-width="0.015" /><path d="M -0.9694002659393305 -0.24548548714079885 A 0.13866783986817854 0.13866783986817854 0 0 0 -0.8660254037844388 -0.4999999999999998" fill="none" stroke="royalblue" stroke-width="0.015" /><path d="M -0.8371664782625288 -0.5469481581224266 A 0.08286236245076613 0.08286236245076613 0 0 1 -0.9157733266550574 -0.4016954246529696" fill="none" stroke="royalblue" stroke-width="0.015" /><path d="M -0.7719166509163211 -0.6357237482099678 A 0.08286236245076747 0.08286236245076747 0 0 0 -0.6567520240477346 -0.7541066097768961" fill="none" stroke="royalblue" stroke-width="0.015" /><path d="M -0.7357239106731316 -0.6772815716257412 A 0.11067997346749485 0.11067997346749485 0 0 0 -0.5698080575102668 -0.8217778152252447" fill="none" stroke="royalblue" stroke-width="0.015" /><path d="M -0.6972968010939956 -0.7167825131684511 A 0.11067997346749685 0.11067997346749685 0 0 0 -0.5236729139878773 -0.8519194088383274" fill="none" stroke="royalblue" stroke-width="0.015" /><path d="M -0.614212712689668 -0.7891405093963935 A 0.0828623624507688 0.0828623624507688 0 0 0 -0.47594739303707334 -0.8794737512064892" fill="none" stroke="royalblue" stroke-width="0.015" /><path d="M 0.0550877603558662 0.9984815164333162 A 0.0828623624507648 0.0828623624507648 0 0 1 0.21868109120637613 0.9757963826274355" fill="none" stroke="royalblue" stroke-width="0.015" /><path d="M 0.11000822099407961 0.9939306773179495 A 0.13866783986818093 0.13866783986818093 0 0 1 0.3763093719478362 0.9264940672148014" fill="none" stroke="royalblue" stroke-width="0.015" /><path d="M 0.16459459028073378 0.9863613034027224 A 0.13866783986818093 0.13866783986818093 0 0 1 0.426776435496404 0.9043571606975773" fill="none" stroke="royalblue" stroke-width="0.015" /><path d="M 0.47594739303707345 0.8794737512064891 A 0.08286236245076613 0.08286236245076613 0 0 0 0.3246994692046838 0.9458172417006345" fill="none" stroke="royalblue" stroke-width="0.015" /><path d="M 0.5698080575102669 0.8217778152252447 A 0.0828623624507688 0.0828623624507688 0 0 1 0.6972968010939957 0.716782513168451" fill="none" stroke="royalblue" stroke-width="0.015" /><path d="M 0.6142127126896681 0.7891405093963934 A 0.13866783986817774 0.13866783986817774 0 0 1 0.8057651056609787 0.5922352526649793" fill="none" stroke="royalblue" stroke-width="0.015" /><path d="M 0.6567520240477344 0.7541066097768963 A 0.13866783986817854 0.13866783986817854 0 0 1 0.8371664782625288 0.5469481581224265" fill="none" stroke="royalblue" stroke-width="0.015" /><path d="M 0.8660254037844386 0.5 A 0.08286236245076345 0.08286236245076345 0 0 0 0.7719166509163211 0.6357237482099677" fill="none" stroke="royalblue" stroke-width="0.015" /><path d="M 0.9157733266550578 0.40169542465296865 A 0.08286236245076345 0.08286236245076345 0 0 1 0.9694002659393305 0.2454854871407987" fill="none" stroke="royalblue" stroke-width="0.015" /><path d="M 0.936511241197055 0.35063755519275397 A 0.13866783986817854 0.13866783986817854 0 0 1 0.99658449300667 0.08257934547233142" fill="none" stroke="royalblue" stroke-width="0.015" /><path d="M 0.9544050018795074 0.2985148110016946 A 0.13866783986817932 0.13866783986817932 0 0 1 0.9996203070249514 0.02755434236816153" fill="none" stroke="royalblue" stroke-width="0.015" /><path d="M 0.9996203070249514 -0.02755434236816202 A 0.0828623624507648 0.0828623624507648 0 0 0 0.9905220846375034 0.13735355781840772" fill="none" stroke="royalblue" stroke-width="0.015" /><path d="M 0.9905220846375032 -0.13735355781840822 A 0.0828623624507648 0.0828623624507648 0 0 1 0.9544050018795073 -0.298514811001695" fill="none" stroke="royalblue" stroke-width="0.015" /><path d="M 0.9814514932524178 -0.1917106319237389 A 0.13866783986818013 0.13866783986818013 0 0 1 0.892254238618394 -0.4515333583108894" fill="none" stroke="royalblue" stroke-width="0.015" /><path d="M 0.9694002659393304 -0.2454854871407992 A 0.13866783986817932 0.13866783986817932 0 0 1 0.8660254037844384 -0.5000000000000004" fill="none" stroke="royalblue" stroke-width="0.015" /><path d="M 0.8371664782625285 -0.5469481581224269 A 0.08286236245077015 0.08286236245077015 0 0 0 0.9157733266550573 -0.4016954246529699" fill="none" stroke="royalblue" stroke-width="0.015" /><path d="M 0.7719166509163209 -0.6357237482099681 A 0.08286236245076345 0.08286236245076345 0 0 1 0.656752024047734 -0.7541066097768967" fill="none" stroke="royalblue" stroke-width="0.015" /><path d="M 0.7357239106731319 -0.6772815716257409 A 0.11067997346749384 0.11067997346749384 0 0 1 0.5698080575102664 -0.821777815225245" fill="none" stroke="royalblue" stroke-width="0.015" /><path d="M 0.6972968010939954 -0.7167825131684513 A 0.11067997346749384 0.11067997346749384 0 0 1 0.5236729139878777 -0.8519194088383272" fill="none" stroke="royalblue" stroke-width="0.015" /><path d="M 0.6142127126896677 -0.7891405093963937 A 0.0828623624507688 0.0828623624507688 0 0 1 0.47594739303707306 -0.8794737512064893" fill="none" stroke="royalblue" stroke-width="0.015" /><line stroke="royalblue" stroke-width="0.015" x1="0.0" x2="-0.0" y1="1.0" y2="-1.0" /><path d="M -0.272103464845335 0.9622680003092504 A 5.992671458523498 5.992671458523498 0 0 0 -0.05508776035586519 -0.9984815164333163" fill="none" stroke="royalblue" stroke-width="0.015" /><path d="M 0.27210346484533576 0.9622680003092502 A 5.99267145852349 5.99267145852349 0 0 1 0.05508776035586482 -0.9984815164333163" fill="none" stroke="royalblue" stroke-width="0.015" /><path d="M -0.5236729139878779 0.8519194088383271 A 2.9129004861551273 2.9129004861551273 0 0 0 -0.11000822099407949 -0.9939306773179495" fill="none" stroke="royalblue" stroke-width="0.015" /><path d="M 0.5236729139878774 0.8519194088383274 A 2.9129004861551313 2.9129004861551313 0 0 1 0.11000822099407913 -0.9939306773179495" fill="none" stroke="royalblue" stroke-width="0.015" /><path d="M -0.7357239106731314 0.6772815716257414 A 1.8478381520160632 1.8478381520160632 0 0 0 -0.16459459028073453 -0.9863613034027223" fill="none" stroke="royalblue" stroke-width="0.015" /><path d="M 0.7357239106731316 0.6772815716257411 A 1.8478381520160647 1.8478381520160647 0 0 1 0.16459459028073328 -0.9863613034027224" fill="none" stroke="royalblue" stroke-width="0.015" /><path d="M -0.892254238618394 0.4515333583108893 A 1.2848000262656698 1.2848000262656698 0 0 0 -0.21868109120637602 -0.9757963826274356" fill="none" stroke="royalblue" stroke-width="0.015" /><path d="M 0.8922542386183938 0.45153335831088975 A 1.2848000262656711 1.2848000262656711 0 0 1 0.21868109120637566 -0.9757963826274356" fill="none" stroke="royalblue" stroke-width="0.015" /><path d="M -0.9814514932524179 0.19171063192373877 A 0.9205648502113791 0.9205648502113791 0 0 0 -0.27210346484533476 -0.9622680003092504" fill="none" stroke="royalblue" stroke-width="0.015" /><path d="M 0.9814514932524179 0.1917106319237384 A 0.9205648502113791 0.9205648502113791 0 0 1 0.27210346484533443 -0.9622680003092505" fill="none" stroke="royalblue" stroke-width="0.015" /><path d="M -0.9965844930066698 -0.08257934547233199 A 0.6533326074612706 0.6533326074612706 0 0 0 -0.3246994692046837 -0.9458172417006346" fill="none" stroke="royalblue" stroke-width="0.015" /><path d="M 0.9965844930066698 -0.08257934547233191 A 0.653332607461271 0.653332607461271 0 0 1 0.32469946920468334 -0.9458172417006347" fill="none" stroke="royalblue" stroke-width="0.015" /><path d="M -0.9365112411970549 -0.3506375551927541 A 0.43864066899633053 0.43864066899633053 0 0 0 -0.3763093719478361 -0.9264940672148015" fill="none" stroke="royalblue" stroke-width="0.015" /><path d="M 0.9365112411970548 -0.3506375551927544 A 0.43864066899633 0.43864066899633 0 0 1 0.37630937194783576 -0.9264940672148017" fill="none" stroke="royalblue" stroke-width="0.015" /><path d="M -0.8057651056609784 -0.5922352526649798 A 0.2532343921970439 0.2532343921970439 0 0 0 -0.42677643549640387 -0.9043571606975774" fill="none" stroke="royalblue" stroke-width="0.015" /><path d="M 0.8057651056609778 -0.5922352526649804 A 0.2532343921970439 0.2532343921970439 0 0 1 0.42677643549640354 -0.9043571606975775" fill="none" stroke="royalblue" stroke-width="0.015" /></g></svg>